<svg id="Layer_1" data-name="Layer 1" xmlns="http://www.w3.org/2000/svg" viewBox="0 0 398.92 400.03"><defs><style>.cls-1{fill:#cccbcb;}</style></defs><path class="cls-1" d="M41.28,381.61l-.12.38c-.24.83-5.51,18.71-6.64,23.22l-6.7-23.6H8.64L.44,428.5H17.9l3-18.84c.14-1.26.24-2.54.34-3.81.22,1.39.58,2.75.95,4.16l6.55,18.49H39.85l7.27-19.64a24.68,24.68,0,0,0,.86-3.08l3.13,22.72H68.59l-8.34-46.89Z" transform="translate(-0.44 -75.35)"/><path class="cls-1" d="M327.34,406.47c0,3.3.69,8.93-4.45,8.93-4.87,0-4.47-5.63-4.47-8.93V381.61H299.54v28.82c0,12.88,8.29,20,23.35,20s23.33-7.11,23.33-20V381.61H327.34Z" transform="translate(-0.44 -75.35)"/><polygon class="cls-1" points="358.82 322.47 369.43 322.47 369.43 353.15 388.32 353.15 388.32 322.47 398.92 322.47 398.92 306.26 358.82 306.26 358.82 322.47"/><path class="cls-1" d="M261.4,381.62l-.11.38c-.24.82-5.52,18.72-6.64,23.22l-6.7-23.6H228.77l-8.21,46.9H238l3-18.84c.14-1.25.24-2.54.34-3.82a41.66,41.66,0,0,0,.95,4.16l6.55,18.5H260l7.27-19.65a26,26,0,0,0,.86-3.07l3.13,22.72h17.48l-8.34-46.9Z" transform="translate(-0.44 -75.35)"/><path class="cls-1" d="M93.62,381.61,77.78,428.5H95.33l1.79-5.7h15.72l1.69,5.7h18.41L116.7,381.61Zm15.85,29.74h-8.94l4.55-15.09Z" transform="translate(-0.44 -75.35)"/><path class="cls-1" d="M183,381.62l-.11.38c-.25.82-5.52,18.72-6.65,23.22l-6.7-23.6H150.35l-8.2,46.9h17.46l3-18.84c.13-1.25.24-2.55.33-3.82a39.17,39.17,0,0,0,1,4.16l6.54,18.5h11.08l7.28-19.66a25.63,25.63,0,0,0,.86-3.06l3.13,22.72H210.3L202,381.62Z" transform="translate(-0.44 -75.35)"/><path class="cls-1" d="M376.15,451.67a11.09,11.09,0,0,1,2-3.83,9.32,9.32,0,0,1,3.42-2.55,11.59,11.59,0,0,1,4.74-.91,11.76,11.76,0,0,1,3.89.64,9.88,9.88,0,0,1,3.25,1.83,8.81,8.81,0,0,1,2.23,2.93,9,9,0,0,1,.82,3.9,9.45,9.45,0,0,1-.72,3.87,10.2,10.2,0,0,1-1.91,2.87,16.22,16.22,0,0,1-2.7,2.27c-1,.68-2,1.35-3,2s-2,1.38-3,2.14a13.81,13.81,0,0,0-2.55,2.68h14.06v5.18H374.88a12.52,12.52,0,0,1,.74-4.5,12.21,12.21,0,0,1,2-3.42,18.13,18.13,0,0,1,3-2.78c1.15-.85,2.36-1.72,3.64-2.59.65-.46,1.34-.92,2.08-1.38a14.27,14.27,0,0,0,2-1.56,8,8,0,0,0,1.53-1.91,4.73,4.73,0,0,0,.61-2.42,4.24,4.24,0,0,0-4.46-4.59,3.9,3.9,0,0,0-2.23.62,4.52,4.52,0,0,0-1.46,1.61,7.65,7.65,0,0,0-.79,2.21,12.34,12.34,0,0,0-.23,2.4h-5.78a14.19,14.19,0,0,1,.59-4.73M342.77,450a3.5,3.5,0,0,0-2.63-1.1,3.91,3.91,0,0,0-2.7.95,7,7,0,0,0-1.72,2.34,12.4,12.4,0,0,0-.94,2.95,20.16,20.16,0,0,0-.34,2.8l.09.09a7.17,7.17,0,0,1,2.89-2.55,9,9,0,0,1,3.82-.76,8.84,8.84,0,0,1,3.74.83,9.22,9.22,0,0,1,3.1,2.23,8.63,8.63,0,0,1,1.74,3.1,11.51,11.51,0,0,1,.56,3.52,11.94,11.94,0,0,1-.75,4.27,10.16,10.16,0,0,1-2.12,3.44,9.9,9.9,0,0,1-3.3,2.3,11.8,11.8,0,0,1-9.81-.51,10.2,10.2,0,0,1-3.52-3.51,14.39,14.39,0,0,1-1.83-4.9,30.51,30.51,0,0,1-.51-5.59,24.18,24.18,0,0,1,.64-5.52,16.17,16.17,0,0,1,2-5,11.61,11.61,0,0,1,3.62-3.63,9.89,9.89,0,0,1,5.39-1.4,11.46,11.46,0,0,1,3.57.55,9,9,0,0,1,2.93,1.6,8.21,8.21,0,0,1,2.08,2.57,10.45,10.45,0,0,1,1.07,3.52h-5.74a5.13,5.13,0,0,0-1.36-2.59m-5.08,9.71a4.28,4.28,0,0,0-1.51,1.21,5.51,5.51,0,0,0-.89,1.76,7.68,7.68,0,0,0-.29,2.11,6.63,6.63,0,0,0,.31,2,5.88,5.88,0,0,0,.94,1.79,4.58,4.58,0,0,0,1.51,1.25,4.32,4.32,0,0,0,2,.47,3.88,3.88,0,0,0,1.93-.47,4.64,4.64,0,0,0,1.42-1.23,5.12,5.12,0,0,0,.89-1.74,6.78,6.78,0,0,0,.3-2,7.87,7.87,0,0,0-.27-2.06,5.72,5.72,0,0,0-.83-1.78,4.21,4.21,0,0,0-1.43-1.28,4,4,0,0,0-2-.49,4.71,4.71,0,0,0-2.11.45m-49.33,8.05a4.94,4.94,0,0,0,1.13,1.59,4.78,4.78,0,0,0,1.67,1,5.84,5.84,0,0,0,2,.36,5.46,5.46,0,0,0,2-.36,4.9,4.9,0,0,0,1.61-1,4.56,4.56,0,0,0,1.09-1.59,5.41,5.41,0,0,0,.38-2,4.5,4.5,0,0,0-.4-1.93,4.62,4.62,0,0,0-1.11-1.51,4.91,4.91,0,0,0-1.61-1,6.23,6.23,0,0,0-5.72.87,4.22,4.22,0,0,0-1.53,3.51,5,5,0,0,0,.43,2.08M284,449a8.06,8.06,0,0,1,2.31-2.55,10.35,10.35,0,0,1,3.21-1.53,13.06,13.06,0,0,1,3.61-.51,11.4,11.4,0,0,1,4.67.85,9.64,9.64,0,0,1,3.08,2.06,7.48,7.48,0,0,1,1.68,2.59,7.27,7.27,0,0,1,.51,2.49,6.9,6.9,0,0,1-1.08,3.86,6,6,0,0,1-3.25,2.38v.09a6.79,6.79,0,0,1,4.12,2.52,7.72,7.72,0,0,1,1.44,4.74,8.5,8.5,0,0,1-.95,4.12,8.7,8.7,0,0,1-2.53,2.89,11.16,11.16,0,0,1-3.57,1.72,14.79,14.79,0,0,1-4.08.58,16.08,16.08,0,0,1-4.18-.54,10.77,10.77,0,0,1-3.61-1.67,8.64,8.64,0,0,1-2.55-2.89,8.51,8.51,0,0,1-1-4.17,7.56,7.56,0,0,1,1.47-4.75,7,7,0,0,1,4.14-2.55v-.09a5.43,5.43,0,0,1-3.27-2.25A7.32,7.32,0,0,1,284,449m5.94,7a5.29,5.29,0,0,0,3.19,1,5.06,5.06,0,0,0,3.19-1,3.48,3.48,0,0,0,1.27-2.91,5.74,5.74,0,0,0-.17-1.3,3.5,3.5,0,0,0-.66-1.34,3.82,3.82,0,0,0-1.36-1.06,5.26,5.26,0,0,0-2.27-.42,5.48,5.48,0,0,0-1.72.27A5,5,0,0,0,290,450a3.55,3.55,0,0,0-1,1.27,4,4,0,0,0-.37,1.79A3.41,3.41,0,0,0,290,456m-42.68,18.75V455.43h-7.48v-4.55a14.47,14.47,0,0,0,3-.23,8,8,0,0,0,2.63-1,6.46,6.46,0,0,0,2-1.85,6.63,6.63,0,0,0,1.06-2.84h4.8v29.73ZM205.48,449a8.4,8.4,0,0,0-5.07-1.44,12.7,12.7,0,0,0-2.47.25,6.56,6.56,0,0,0-2.14.84,4.43,4.43,0,0,0-1.51,1.56,4.92,4.92,0,0,0-.56,2.44,3.13,3.13,0,0,0,.81,2.24,6.17,6.17,0,0,0,2.17,1.4,18,18,0,0,0,3.07.89c1.14.24,2.3.5,3.49.78s2.34.6,3.48,1a11.43,11.43,0,0,1,3.07,1.52,7.3,7.3,0,0,1,2.17,2.42,8.52,8.52,0,0,1-.25,7.74,8.7,8.7,0,0,1-2.74,2.76,11.79,11.79,0,0,1-3.73,1.54,18.15,18.15,0,0,1-4.11.48,17.4,17.4,0,0,1-4.74-.63,11.43,11.43,0,0,1-3.92-1.89,9,9,0,0,1-2.67-3.26,10.41,10.41,0,0,1-1-4.7h3.75a6.8,6.8,0,0,0,.73,3.24,6.7,6.7,0,0,0,1.92,2.23,8,8,0,0,0,2.78,1.3,13,13,0,0,0,3.25.41,14.48,14.48,0,0,0,2.69-.25,7.89,7.89,0,0,0,2.45-.85,4.6,4.6,0,0,0,2.42-4.32,3.72,3.72,0,0,0-.82-2.51,5.86,5.86,0,0,0-2.17-1.56,15.94,15.94,0,0,0-3.06-1l-3.49-.78c-1.18-.26-2.34-.56-3.48-.91a12.5,12.5,0,0,1-3.07-1.38,6.55,6.55,0,0,1-2.17-2.21,6.46,6.46,0,0,1-.82-3.4,7.93,7.93,0,0,1,.92-3.91,8.14,8.14,0,0,1,2.44-2.71,10.78,10.78,0,0,1,3.47-1.58,15.15,15.15,0,0,1,4-.53,16,16,0,0,1,4.26.55,9.5,9.5,0,0,1,3.44,1.71,8.25,8.25,0,0,1,2.34,2.94,10.56,10.56,0,0,1,.94,4.24h-3.76a6.2,6.2,0,0,0-2.31-4.66m-49.37,0a8.4,8.4,0,0,0-5.07-1.44,12.67,12.67,0,0,0-2.46.25,6.61,6.61,0,0,0-2.15.84,4.32,4.32,0,0,0-1.5,1.56,4.81,4.81,0,0,0-.57,2.44,3.14,3.14,0,0,0,.82,2.24,6.08,6.08,0,0,0,2.17,1.4,17.51,17.51,0,0,0,3.07.89q1.71.36,3.48.78c1.18.27,2.35.6,3.49,1a11.22,11.22,0,0,1,3.06,1.52,7.2,7.2,0,0,1,2.17,2.42,7.38,7.38,0,0,1,.82,3.67,7.48,7.48,0,0,1-1.07,4.07,8.77,8.77,0,0,1-2.73,2.76,11.85,11.85,0,0,1-3.74,1.54,18,18,0,0,1-4.11.48,17.27,17.27,0,0,1-4.73-.63,11.57,11.57,0,0,1-3.93-1.89,9.07,9.07,0,0,1-2.67-3.26,10.54,10.54,0,0,1-1-4.7h3.76a6.68,6.68,0,0,0,.73,3.24,6.48,6.48,0,0,0,1.92,2.23,8,8,0,0,0,2.77,1.3,13.18,13.18,0,0,0,3.26.41,14.48,14.48,0,0,0,2.69-.25,7.83,7.83,0,0,0,2.44-.85,4.6,4.6,0,0,0,2.42-4.32,3.77,3.77,0,0,0-.81-2.51,5.94,5.94,0,0,0-2.17-1.56,16.28,16.28,0,0,0-3.07-1l-3.48-.78c-1.19-.26-2.35-.56-3.49-.91a12.85,12.85,0,0,1-3.07-1.38,6.74,6.74,0,0,1-2.17-2.21,6.56,6.56,0,0,1-.81-3.4,7.93,7.93,0,0,1,.92-3.91,8,8,0,0,1,2.44-2.71,10.83,10.83,0,0,1,3.46-1.58,15.23,15.23,0,0,1,4-.53,15.89,15.89,0,0,1,4.25.55,9.63,9.63,0,0,1,3.45,1.71,8.36,8.36,0,0,1,2.34,2.94,10.56,10.56,0,0,1,.94,4.24h-3.76a6.21,6.21,0,0,0-2.32-4.66M112.2,474.71h-4v-29.8h4Zm-40.65,0-6.8-25h-.08l-6.89,25H53.65L46,444.91h4.05L55.9,469.7H56l6.67-24.79H67l6.6,24.79h.08l6-24.79h4l-8,29.8ZM17.24,449a8.4,8.4,0,0,0-5.07-1.44,12.59,12.59,0,0,0-2.46.25,6.61,6.61,0,0,0-2.15.84,4.32,4.32,0,0,0-1.5,1.56,4.81,4.81,0,0,0-.57,2.44,3.09,3.09,0,0,0,.82,2.24,6.08,6.08,0,0,0,2.17,1.4,17.51,17.51,0,0,0,3.07.89q1.71.36,3.48.78c1.18.27,2.34.6,3.48,1a11.15,11.15,0,0,1,3.07,1.52,7.2,7.2,0,0,1,2.17,2.42,8.44,8.44,0,0,1-.25,7.74,8.77,8.77,0,0,1-2.73,2.76A11.85,11.85,0,0,1,17,474.9a18,18,0,0,1-4.11.48,17.27,17.27,0,0,1-4.73-.63,11.57,11.57,0,0,1-3.93-1.89,9.07,9.07,0,0,1-2.67-3.26,10.54,10.54,0,0,1-1-4.7H4.37a6.68,6.68,0,0,0,.73,3.24A6.48,6.48,0,0,0,7,470.37a8,8,0,0,0,2.77,1.3,13.12,13.12,0,0,0,3.26.41,14.56,14.56,0,0,0,2.69-.25,7.83,7.83,0,0,0,2.44-.85,4.6,4.6,0,0,0,2.42-4.32,3.77,3.77,0,0,0-.81-2.51,6,6,0,0,0-2.17-1.56,16.28,16.28,0,0,0-3.07-1l-3.48-.78c-1.19-.26-2.35-.56-3.49-.91a12.85,12.85,0,0,1-3.07-1.38,6.64,6.64,0,0,1-2.17-2.21,6.56,6.56,0,0,1-.81-3.4A7.83,7.83,0,0,1,2.45,449a8,8,0,0,1,2.44-2.71,10.73,10.73,0,0,1,3.46-1.58,15.23,15.23,0,0,1,4-.53,16,16,0,0,1,4.26.55A9.66,9.66,0,0,1,20,446.46a8.25,8.25,0,0,1,2.34,2.94,10.4,10.4,0,0,1,.93,4.24H19.56A6.21,6.21,0,0,0,17.24,449" transform="translate(-0.44 -75.35)"/><path class="cls-1" d="M83.34,204.84a114.33,114.33,0,0,1,217.8-48.65A24.67,24.67,0,0,0,290,162.26l1.35,2.23A28.31,28.31,0,0,1,304.08,163a114,114,0,0,1,7.91,41.8c0,1.48-.05,2.94-.11,4.4a31.44,31.44,0,0,1-8.17,1.26h0a32.86,32.86,0,0,1-3.91-.25c-5.36-.67-10-4-13.73-7.31-.06-4.31-.34-24-.44-24.25L263.33,144l4.23-.56.06-.55-10.41-11.46.11-.33,5.4-2.12v-.33l-9.85-4.17.11-.4,2.45-2.38-.17-.34-11.51-2-.72.17L239,121.79l-.73.12-14.46-1.34-.33.45c.06.27.5,1.83.55,2.22s.23,1.67.23,1.83l-.28.34-7.84.89-.34.39-5.72,10.24-.45.38c-.22.12-53.89,15.91-54.31,16a4.47,4.47,0,0,0-1.5.84c-.59.42-46.47,36.29-46.64,36.51l-.39.78-7.34,22.75,4,1.93,4.3-7.83,1.08,3.62.11.89c0,.2-7.82,31.83-11.57,46.84a113.83,113.83,0,0,1-14-54.79m239-41.78c11.65,7.76,15.47,18.82,15.29,28.27-.21,10.51-4.28,20-13.11,27-12.13,9.49-27.51,7.69-37.1,3.63-9.79-4.15-19.93-14-25.66-23-.69-5.84,7-12.55,10.3-8.56,3.11,3.81,8.12,10.17,10.18,12.19,5.08,5,10.65,9.21,17.25,10,27.75,3.44,36.16-27.28,20.93-43.27A25.79,25.79,0,0,0,293.5,162c8.76-7.22,21.78-3.66,28.86,1.05m-69-6.23.26-.62,2.28-.24,2.24,1.31.3.69-.41.46-1.69,1.24Zm-22.24,6.94-.9,1.4-4.71-4.59,0-12.75.61-.66,9.49,2,.54.94.54,1.88L228,149.43l-.21,10.36ZM197.67,319.18A114.09,114.09,0,0,1,107.42,275h12.91l-1.4-10.43,17.31-34.22s14.26,1.95,14.61,2.08l-.41,1.59-12.88-.75-8.26,16L126.59,275H156.1l-5.29-12,6.65-23.94,8,0,2.45,3.6,5.57-3.09,1.94,3.54,7.08-2.92-5,34.76h25.19L201,264.79l7.32-16.68L194,234.52l.78-8.68,1.69-.7.16,7.84,14.57,13.85L210.27,275h33.09l-5.89-9.14c-.06-.23-6.4-35.81-6.35-36.49s6.9-27.64,7.12-28l6.73-3.33c.28.1,10.46,12,10.85,12s3.73-3.17,4-3.22l5.11,5.11L247.7,234.48l10.06,17.74,1.84-6.06,8.12,1.78-9.21-12.79,20.95-14.74.12-.16a42.84,42.84,0,0,0,24.11,7.26c1.62,0,4.45-.27,6.13-.47a114.35,114.35,0,0,1-112.15,92.14m0,15.13A129.49,129.49,0,0,0,326.28,219.84a36.31,36.31,0,0,0-2.65-58.7,32.73,32.73,0,0,0-5.06-2.73,129.49,129.49,0,1,0-120.9,175.9" transform="translate(-0.44 -75.35)"/></svg>