<?xml version="1.0" encoding="utf-8"?>
<!-- Generator: Adobe Illustrator 23.0.6, SVG Export Plug-In . SVG Version: 6.00 Build 0)  -->
<svg version="1.1" id="Layer_1" xmlns="http://www.w3.org/2000/svg" xmlns:xlink="http://www.w3.org/1999/xlink" x="0px" y="0px"
	 viewBox="0 0 233.8 135" style="enable-background:new 0 0 233.8 135;" xml:space="preserve">
<style type="text/css">
	.st0{fill:#CCCCCC;}
</style>
<g id="Flat_Logo_Vertical_White">
	<g id="SUBARU">
		<g>
			<path class="st0" d="M194.2,105.7v21c0.2,5.1,3.2,7.8,8.3,8c5.8,0.2,11.8,0.3,18.2,0c4.8-0.2,7.7-3.3,7.9-8v-21h-7.7V125
				c0,1.8-1.1,2.6-2.6,2.6c-4.5,0.4-9.4,0.4-14.2,0c-1.3,0-2.3-1.3-2.3-2.7v-19.3H194.2z"/>
			<path class="st0" d="M12.6,105.7c-4,0.3-8.2,2.3-8.8,7.2c-0.1,1.1-0.1,1.7,0,2.6c0.6,5.4,4.6,6.7,7.7,7c3.2,0.3,16.5,1,18.1,1.1
				c2.2,0.2,2.5,1.1,2.5,2.2c0,1.3-0.6,2-2.5,2.2c-4.1,0.2-11.7,0.2-15.6,0.1c-1.4-0.1-2.4-0.4-2.4-2.1l0-1.4H4c0,0,0,0.7,0,0.8
				c0,6,2.1,8.8,7.8,9.3c5.6,0.4,14,0.4,20.2,0c5.4-0.3,7.4-4.1,7.6-8.4c0-0.3,0-0.7,0-1c-0.2-5.1-3.1-7.6-7.2-8
				c-2.7-0.2-16.8-0.9-18.8-1.1c-1.5-0.1-2.1-0.9-2.1-2.1c0-1,0.7-1.8,2-1.9c4.5-0.3,12.3-0.2,15.5,0c1.5,0.1,2.1,0.8,2.2,1.7v1.3
				h7.7c0,0,0-0.4,0-1.2c-0.2-5.7-2.9-8-8.2-8.2C24.8,105.4,18.6,105.3,12.6,105.7"/>
			<path class="st0" d="M80.9,134.8h25.4c5.9-0.1,8.6-3.3,8.6-9c0-3.9-1.9-6.1-3.3-6.5c1.2-0.5,2.6-2.3,2.6-5.6c0-5.1-3.3-7.8-8.1-8
				H80.9V134.8z M104.2,112.1c1.4,0.1,2.6,0.7,2.6,2.3c0,1.6-1.1,2.4-2.7,2.6H88.6v-4.8H104.2z M104.2,122.9c1.3,0.1,3,0.6,3,2.7
				c0,2.2-1.5,2.7-3.2,2.8H88.6v-5.5H104.2z"/>
			<path class="st0" d="M42.5,105.7v21c0.2,5.1,3.2,7.8,8.3,8c5.8,0.2,11.8,0.3,18.1,0c4.9-0.2,7.7-3.3,7.9-8v-21h-7.6V125
				c0,1.8-1.1,2.6-2.6,2.6c-4.6,0.4-9.5,0.4-14.2,0c-1.3,0-2.3-1.3-2.4-2.7v-19.3H42.5z"/>
			<path class="st0" d="M156.8,105.7v29.1h7.6l0-10.4h15.8c1.8,0,2.7,1.2,2.8,2.8c0.2,3,0.1,7.6,0.1,7.6l7.7,0c0,0,0-4.2-0.1-7.3
				c-0.1-3.3-1.8-6-3.3-6.5c1.3-0.7,3-2.6,3-6.6c0-6-3.2-8.5-8.2-8.8H156.8z M180.3,112.1c1.8,0.2,2.7,1,2.7,2.8
				c0,1.8-0.9,2.8-2.7,2.8h-15.8v-5.5L180.3,112.1z"/>
			<path class="st0" d="M146,134.8h8.9L139,105.7h-0.5H131h-0.5l-15.9,29.1h8.7l2.7-5.2h17.3L146,134.8z M129.2,123.4l5.5-10.5
				l5.4,10.5H129.2z"/>
		</g>
		<g>
			<path class="st0" d="M231,134.8c-1,0-1.7-0.7-1.7-1.7c0-1,0.8-1.7,1.7-1.7c0.9,0,1.7,0.7,1.7,1.7
				C232.6,134.1,231.9,134.8,231,134.8z M231,131.7c-0.7,0-1.3,0.6-1.3,1.4c0,0.8,0.5,1.4,1.3,1.4c0.7,0,1.3-0.6,1.3-1.4
				C232.3,132.3,231.7,131.7,231,131.7z M230.6,134.1h-0.3v-1.9h0.7c0.5,0,0.7,0.2,0.7,0.5c0,0.3-0.2,0.5-0.5,0.5l0.5,0.8h-0.4
				l-0.5-0.8h-0.3V134.1z M231,133c0.2,0,0.4,0,0.4-0.3c0-0.2-0.2-0.3-0.4-0.3h-0.4v0.6H231z"/>
		</g>
	</g>
	<g id="Star_Cluster">
		<path class="st0" d="M140.7,34.7c-0.7-0.1-2.1,0-3.5,0.2c-7,1-26.4,4.1-31.8,5.1c-5.8,1.1-8.3,2.5-10,8.7c-1.4,5-2.2,8.1-4,15.1
			c-0.3,1.2-0.7,2-1.2,2c-0.6,0-0.9-0.9-1.2-2c-1.7-7-2.6-10.1-4-15.1c-1.7-6.2-4.2-7.6-10-8.7c-5.4-1-24.8-4.1-31.8-5.1
			c-0.8-0.1-2-0.4-2-1.1c0-0.7,1.2-0.9,2-1c7.2-0.7,26.7-2.7,31.8-3.4c6.1-0.9,8.2-2.5,10-6.7c1.6-3.9,2.7-7.2,4-11.5
			c0.3-1.2,0.7-2,1.2-2c0.6,0,0.9,0.8,1.2,2c1.3,4.3,2.4,7.6,4,11.5c1.7,4.2,3.8,5.9,10,6.7c5.2,0.7,24.7,2.7,31.8,3.4
			c1.4,0.1,2.6,0.2,3.5,0.1c5.2-0.6,11.9-1.6,14.3-2.1c2.1-0.4,3.2-1.5,3.7-2.8c0.6-1.6,1-2.6,1.7-5.3c0.3-1.1,0.5-1.6,1-1.6
			c0.5,0,0.7,0.6,1,1.6c0.7,2.6,1.1,3.7,1.7,5.3c0.5,1.4,1.6,2.4,3.7,2.8c2.5,0.5,9.1,1.5,14.3,2.1c0.4,0.1,1.5,0.2,1.5,0.9
			c0,0.8-1.1,0.9-1.5,0.9c-5.1,0.7-11.8,1.8-14.3,2.3c-2.6,0.6-3.2,1.5-3.7,2.9c-0.6,1.5-1,2.7-1.8,5.5c-0.3,0.9-0.5,1.5-1,1.5
			s-0.7-0.6-1-1.5c-0.8-2.8-1.2-3.9-1.8-5.5c-0.5-1.4-1.1-2.3-3.7-2.9C152.5,36.5,145.8,35.4,140.7,34.7z"/>
		<path class="st0" d="M157.8,50.4c1.2-0.2,2.1-0.1,3.1,0.1c4,0.5,5.3,0.6,10.1,1.2c1.5,0.2,2.3,0.9,2.8,2.4
			c0.8,2.4,1.1,3.5,1.4,4.6c0.2,0.9,0.4,1.6,1.1,1.6s0.8-0.8,1.1-1.6c0.3-1.1,0.6-2.1,1.4-4.6c0.4-1.4,1.3-2.2,2.8-2.4
			c4.8-0.6,6.1-0.7,10.1-1.2c0.7-0.1,1.6-0.2,1.6-0.9c0-0.7-1-0.9-1.6-1c-3.9-0.5-5.3-0.7-10.1-1.3c-1.5-0.2-2.4-0.8-2.8-1.8
			c-0.9-2-1.2-3.4-1.4-4.4c-0.2-1-0.5-1.6-1-1.6c-0.6,0-0.8,0.6-1,1.6c-0.2,0.9-0.5,2.3-1.4,4.4c-0.4,1-1.3,1.6-2.8,1.8
			c-4.8,0.6-6.2,0.8-10.1,1.3c-1,0.1-2.5,0.2-3.1,0.1c-3.7-0.4-7.1-1-12.1-1.7c-2-0.3-2.9-1-3.4-2.3c-0.9-2.2-1.2-3.4-1.6-4.9
			c-0.2-0.7-0.4-1.7-1-1.7c-0.6,0-0.8,0.9-1,1.7c-0.4,1.5-0.7,2.8-1.6,4.9c-0.6,1.3-1.4,2-3.4,2.3c-5,0.7-8.4,1.2-12.1,1.7
			c-0.6,0.1-1.4,0.2-1.4,0.9c0,0.7,1.1,0.8,1.4,0.8c3.7,0.5,7.1,1.1,12.1,1.9c1.9,0.3,2.9,1.1,3.4,3.1c0.6,2.4,0.9,3.5,1.7,6.5
			c0.1,0.6,0.4,1.3,1,1.3c0.6,0,0.8-0.8,1-1.3c0.7-3,1-4.1,1.7-6.5c0.5-2,1.5-2.8,3.4-3.1C150.7,51.5,154.1,50.9,157.8,50.4"/>
		<path class="st0" d="M116.3,0C66.7,0,26.6,19.7,26.6,44s40.2,44,89.7,44S206,68.3,206,44S165.8,0,116.3,0z M116.2,82.8
			c-46,0-82.6-17.4-82.6-38.8S70.2,5.2,116.2,5.2s82.6,17.4,82.6,38.8S162.2,82.8,116.2,82.8z"/>
		<path class="st0" d="M136.2,66.7c1.3-0.2,2.3-0.1,3.3,0.1c2.6,0.3,5.3,0.6,10.1,1.2c1.7,0.2,2.5,1,2.8,1.9
			c0.3,0.9,0.9,2.6,1.3,4.2c0.3,1,0.4,1.7,1.1,1.7s0.8-0.6,1.1-1.7c0.5-1.6,1-3.3,1.3-4.2c0.3-0.9,1.1-1.7,2.8-1.9
			c4.8-0.6,7.5-0.9,10.1-1.2c0.2,0,1.6-0.2,1.6-0.9c0-0.7-1-0.9-1.6-0.9c-2.6-0.3-5.4-0.6-10.1-1.3c-1.7-0.2-2.5-0.8-2.8-1.7
			c-0.6-1.4-1.1-3.4-1.3-4.4c-0.1-0.8-0.6-1.7-1.1-1.7c-0.5,0-1,0.9-1.1,1.7c-0.2,1-0.7,3-1.3,4.4c-0.4,0.9-1.1,1.5-2.8,1.7
			c-4.7,0.7-7.5,1-10.1,1.3c-0.7,0.1-2.6,0.2-3.3,0.1l0,0c-3.5-0.5-7.2-1-14-2c-2.2-0.3-3.2-1.2-3.7-2.4c-1-2.3-1.6-4.9-2-6.1
			c-0.2-0.7-0.4-1.6-1-1.6s-0.8,0.9-1,1.6c-0.3,1.2-1,3.8-2,6.1c-0.5,1.2-1.5,2.1-3.7,2.4c-6.8,1-10.5,1.5-14,2
			c-0.6,0.1-1.6,0.2-1.6,0.9c0,0.7,1.1,0.8,1.6,0.9c3.5,0.6,7.2,1.1,14,2.3c2.2,0.4,3.1,1.9,3.7,3.8c0.6,2,1.6,5,2,6.2
			c0.2,0.7,0.5,1.5,1,1.5s0.7-0.8,1-1.5c0.4-1.2,1.4-4.2,2-6.2c0.6-1.9,1.5-3.4,3.7-3.8C129,67.9,132.7,67.3,136.2,66.7z"/>
	</g>
</g>
</svg>
