<?xml version="1.0" encoding="utf-8"?>
<!-- Generator: Adobe Illustrator 23.0.2, SVG Export Plug-In . SVG Version: 6.00 Build 0)  -->
<svg version="1.1" id="Layer_1" xmlns="http://www.w3.org/2000/svg" xmlns:xlink="http://www.w3.org/1999/xlink" x="0px" y="0px"
	 viewBox="0 0 316 135" style="enable-background:new 0 0 316 135;" xml:space="preserve">
<style type="text/css">
	.st0{fill:#CCCCCC;}
</style>
<g>
	<polygon class="st0" points="52.8,71.7 0.2,71.7 0.2,85.1 13.8,85.1 13.8,116.3 39.1,116.3 39.1,85.1 52.8,85.1 	"/>
	<g>
		<path class="st0" d="M52.7,71.7l24,25.1v19.6H102V96.8l23.9-25.1H97.5l-5,6.8c-1.1,1.4-2,3.1-3,4.6c-0.8-1.4-1.6-2.8-2.6-4.3
			l-5.4-7.5H52.7V71.7z"/>
		<path class="st0" d="M126.2,71.7v44.6h23.5V99.9l12.8,16.4h26.6l-16.6-17.9c2.1-0.4,3.6-1,5.5-1.8c3.1-1.4,7.1-4.3,7.1-10
			c0-4.6-2.8-7.3-4.5-8.8c-5-4.3-12.1-5.7-20-6.1c-2-0.1-4-0.1-6.1-0.1h-28.3V71.7z M149.7,83.8h3.4c1,0,7.9-0.4,7.9,3.6
			c0,1.2-0.5,1.9-1,2.3c-1.6,1.4-4.3,1.5-6.8,1.5h-3.4v-7.6h-0.1V83.8z"/>
		<path class="st0" d="M298.1,74.8c-3.1-0.9-8.8-3-17.4-3.9c-3.1-0.3-5.5-0.4-6.8-0.4c-10.4,0-21.1,2.6-25.9,9
			c-0.8,1.2-2.6,3.6-2.6,7.1c0,7.9,9,10.7,13.1,11.7c2.8,0.6,7.1,1.2,10.1,1.4c1.9,0.3,5,0.4,5,2.3c0,1.3-2.3,2.8-6.5,2.8
			c-6.1,0-12-2.6-16.9-4.8l-8,12.2c4.8,1.5,14.4,5.2,28.3,5.2c8.3,0,14.9-1.2,21-4.6c7.1-4.3,8-8.9,8-11.5c0-3.1-1.3-9-12.8-12
			c-3-0.8-8-1.4-11-1.9c-1.9-0.3-5.1-0.4-5.1-2.3c0-1.4,1.9-2.2,5.6-2.3c5.4,0,10,1.8,14.5,3.5L298.1,74.8z"/>
		<polygon class="st0" points="191.6,71.7 191.6,116.3 238.5,116.3 238.5,103.9 215,103.9 215,99.8 236.2,99.8 236.2,87.8 215,87.8 
			215,84.1 237.9,84.1 237.9,71.7 		"/>
		<path class="st0" d="M10.9,36v22.2H0.2V25.4h33.9c5.8,0,8.4,0.8,11.5,3.2c3,2.4,3.8,6.4,3.9,9.8c0,0.1,0,19.7,0,19.7H38.7V47
			c-0.1-3.5,0.5-7.6-1.1-9.5c-1.8-1.9-4.5-1.2-7.9-1.3C29.7,36,10.9,36,10.9,36"/>
		<rect x="169.5" y="25.4" class="st0" width="10.8" height="32.6"/>
		<path class="st0" d="M206.5,35.5c-10.8,0-11.9,3.2-11.9,6.8c0,3.3,2.3,6.2,11.5,6.2h24.8l-7.3,9.7c0,0-23.5,0-23.6,0
			c-11.8-0.4-15.6-7.7-15.6-16.6c0-8.4,5.3-16,20.4-16.1h41.1V58h-10.6V35.6C234.9,35.6,206.6,35.5,206.5,35.5"/>
		<path class="st0" d="M261,36v22.2h-10.8V25.4h33.9c5.8,0,8.4,0.8,11.5,3.2c3,2.4,3.8,6.4,3.9,9.8c0,0.1,0,19.7,0,19.7h-10.8V47
			c-0.1-3.5,0.5-7.6-1.1-9.5c-1.8-1.9-4.5-1.2-7.9-1.3C279.7,36,261,36,261,36"/>
		<path class="st0" d="M77.6,35.2c-8.3,0-14.9,0.1-14.9,6.4s6.6,6.6,14.9,6.6h18.6c8.3,0,14.9-0.3,14.9-6.6s-6.6-6.4-14.9-6.4H77.6z
			 M73.7,25.4h26.6c11.6,0,21.3,7.3,21.3,16.4s-9.5,16.4-21.3,16.4H73.7c-11.6,0-21.3-7.3-21.3-16.4S62,25.4,73.7,25.4"/>
		<rect x="124.5" y="19.1" class="st0" width="10.8" height="39"/>
		<polygon class="st0" points="136.2,39 152.6,25.6 167.9,25.6 149.7,39.2 167.8,58.2 153.1,58.2 		"/>
		<path class="st0" d="M308.3,21.6c-0.4,0-0.6,0-1,0.1v3.6c0.1,0,0.4,0.1,0.6,0.1c1.4,0,2-0.8,2-2.1
			C310.1,22.2,309.6,21.6,308.3,21.6 M310.1,30.3l-2.8-4.5l0,0v4.5h-1.3v-9c0.5-0.3,1.3-0.4,2.1-0.4c2,0,3,1,3,2.6
			c0,1.4-1,2.4-2.6,2.6l2.9,4.4h-1.5v-0.1H310.1z M308.4,18.5c-3.6,0-6.5,3.2-6.5,7.2s2.9,7.2,6.5,7.2s6.5-3.2,6.5-7.2
			C314.9,22,312.1,18.5,308.4,18.5 M308.4,34.2c-4.3,0-7.8-3.6-7.8-8.4c0-4.5,3.5-8.4,7.8-8.4s7.8,3.9,7.8,8.4
			S312.7,34.2,308.4,34.2"/>
	</g>
</g>
</svg>
