<?xml version="1.0" encoding="utf-8"?>
<!-- Generator: Adobe Illustrator 23.0.6, SVG Export Plug-In . SVG Version: 6.00 Build 0)  -->
<svg version="1.1" id="Layer_1" xmlns="http://www.w3.org/2000/svg" xmlns:xlink="http://www.w3.org/1999/xlink" x="0px" y="0px"
	 viewBox="0 0 233.8 135" style="enable-background:new 0 0 233.8 135;" xml:space="preserve">
<style type="text/css">
	.st0{fill-rule:evenodd;clip-rule:evenodd;fill:#CCCCCC;}
	.st1{fill:#CCCCCC;}
</style>
<path class="st0" d="M175.5,120.8l0-17.9h-9.8l0,19.8c0,6.7,6.9,12.1,15.5,12.1c8.5,0,15.5-5.4,15.5-12.1l0-19.8l-9.8,0l0,17.9
	c0,3-2.5,5.4-5.7,5.4S175.5,123.8,175.5,120.8z"/>
<rect x="218.8" y="81.7" class="st0" width="9.9" height="52"/>
<rect x="202.1" y="81.7" class="st0" width="9.9" height="52"/>
<path class="st0" d="M20.8,92.6l-5.4,0v41.1H4.9V84.1c0,0,17.9,0,18.1,0c8.2,0,14.9,6.6,14.9,14.7c0,6.9-4.8,12.7-11.4,14.2
	l14.6,20.7H28.7l-10.5-16.2v-11.9l2.4,0c3.9,0,7-2.9,7-6.5C27.7,95.5,24.7,92.6,20.8,92.6z"/>
<path class="st1" d="M72.3,120.3c0.1-0.7,0.1-1.4,0.1-2.1c0.2-10.7-6.9-16.6-16-16.6c-9,0-16.4,7.4-16.4,16.6
	c0,9.2,7.3,16.6,16.4,16.6c6.9,0,12.3-3.1,15.1-8l-8-3.7c-1,2.2-3.4,3.8-6.2,3.8c-3.9,0-6.7-2.8-6.7-6.2c0-0.2,0-0.3,0-0.3
	L72.3,120.3z M50.4,114.6c0-3.3,2.7-6.1,6.1-6.1c3.3,0,6.1,2.7,6.1,6.1H50.4z"/>
<path class="st1" d="M111.7,133.7l0-52h-9.9l0,24.6c-2.6-2.6-6.1-4.2-10-4.2c-8.2,0-14.8,7.3-14.8,16.2c0,9,6.6,16.2,14.8,16.2
	c3.9,0,7.4-1.6,10-4.3v3.5H111.7z M94.7,126.1c-4,0-7.3-3.6-7.3-8c0-4.4,3.3-8,7.3-8c4,0,7.3,3.6,7.3,8
	C101.9,122.5,98.7,126.1,94.7,126.1z"/>
<path class="st1" d="M153.6,106.7c2.7-2.5,4.4-5.9,4.4-9.6c0-3.4-1.3-6.5-3.6-8.9c-2.4-2.6-6.5-4.1-12.2-4.1h-16.9v49.6h21.9
	c8.4-0.1,15.1-6.5,15.1-14.2C162.2,113.8,160.3,109.8,153.6,106.7z M145.3,125.1h-9.5V92.6h6.6c2.9,0,5.3,2.7,5.3,5.6
	c0,2.9-2.4,5.3-5.3,5.3H139v8.9h6.3c3.5,0,6.2,2.8,6.2,6.4C151.3,122.3,149.1,124.8,145.3,125.1z"/>
<g>
	<path class="st1" d="M158.3,51.6c-0.4,0-0.7,0.1-1.1,0.1c-0.2,0-0.4,0-0.6,0c-0.2,0-0.3,0-0.4,0c-0.2,0-0.4,0-0.6,0l0,0l0,0
		c0,0.1-0.7,1.3-0.6,2.1c0.1,0.8,1,1,1.6,1.2c0.2,0,0.5,0.1,0.8,0.1c0.5,0,0.8-0.2,0.9-0.5c0.4-1,0.6-1.8,0.7-2.6
		c0-0.1,0-0.2-0.1-0.2c-0.1-0.1-0.3-0.2-0.5-0.2C158.4,51.6,158.4,51.6,158.3,51.6z"/>
	<path class="st1" d="M205.7,54.6c-0.4-0.6-1.1-1.1-1.7-1.4c-0.3-0.2-0.5-0.3-0.6-0.5l-0.1-0.1c-0.1-0.1-0.3-0.2-0.5-0.2
		c-0.6,0-1.3,0.8-1.4,1c0,0.4,0.5,1.1,1.2,1.9l0.2,0.2c0.4,0.4,0.8,0.7,1.2,0.7l0,0c0.4,0,0.7-0.1,1.1-0.5
		C205.4,55.6,206,55,205.7,54.6z"/>
	<path class="st1" d="M208.7,59.6c-0.1-0.2-0.2-0.5-0.2-0.6c-0.1-0.3-0.1-0.6-0.1-0.9c-0.1-0.5-0.1-0.9-0.3-1.3
		c-0.2-0.4-0.7-0.7-1.1-0.7c-0.2,0-0.3,0-0.5,0.1c-0.7,0.4-1.1,0.7-1,1.5c0.4,1.2,0.6,2,0.8,3.1c0,0.2,0.1,0.7,0.4,0.7
		c0,0,0,0,0.1,0l2-0.7c0.1,0,0.2-0.1,0.2-0.2C209.2,60.5,208.9,60,208.7,59.6z"/>
	<path class="st1" d="M204.2,57.6L204.2,57.6L204.2,57.6c-1.3,0-2-0.9-2.7-1.8c-0.2-0.3-0.5-0.6-0.7-0.8c-0.4-0.4-0.8-0.8-1.1-1.1
		c-0.4-0.4-0.8-0.7-0.9-1c-0.2-0.3-0.3-1-0.5-1.6c-0.1-0.5-0.2-0.9-0.3-1.2c0-0.1,0-0.1-0.1-0.2c-0.2-0.6-0.5-1.3-1.2-1.4
		c-0.4-0.1-0.8-0.1-1.1-0.1c-1.1,0-2.1-0.2-2.7-1c-0.5-0.7-0.3-1.3,0-2c0.1-0.3,0.2-0.6,0.3-0.9c0.4-1.3,0.5-2.9,0.2-4
		c0-0.2-0.1-0.4-0.2-0.5c-0.2-0.5-0.3-1.2-0.2-1.4c0.1-0.2,0.2-0.3,0.4-0.3c0.2,0,0.4,0.1,0.6,0.1c0.1,0,0.3,0.1,0.4,0.1
		c0.5,0.1,1.3,0.3,2,0.3c1.2,0,2.4-0.3,3.5-0.7c2-1,4-3.2,3.9-6c-0.3-2.8-2-5.5-5.3-8.2c-0.1-0.1-0.2-0.1-0.2-0.2
		c-0.4-0.4-0.9-0.8-1-1.2c0-0.4,1-0.6,1.7-0.8c0.1,0,0.3-0.1,0.4-0.1l0.2,0c0.8-0.2,1.7-0.4,2.4-0.9c2.3-1.6,2.3-4.4,2-5.9
		c0,0,0-0.1,0-0.1c0-0.2-0.1-0.4-0.3-0.4c-0.1,0-0.1,0-0.2,0.1c-0.1,0.1-0.1,0.1-0.2,0.2c-0.3,0.3-0.6,0.5-0.9,0.7
		c-0.7,0.4-1.6,0.6-2.5,0.8c-0.5,0.1-1.1,0.2-1.7,0.4c-2.3,0.8-3.8,2-4.3,3.5c-0.3,0.8-0.1,1.8,0.4,2.8c0.8,1.2,1.9,2.3,2.9,3.3
		c1.7,1.6,3.4,3.3,3.8,5.5c0.2,1.3-0.3,2.4-1.6,3.4c-0.7,0.4-1.6,0.6-2.5,0.6c-1.2,0-2.5-0.3-3.6-0.9c-1.4-0.7-2.7-1.6-4-2.4
		c-1.9-1.3-3.9-2.6-6.1-3.3c-1-0.4-2-0.6-3-0.9c-1.5-0.3-3-0.6-4.2-1.5c-0.4-0.3-0.8-0.6-1.2-0.9c-1.1-0.8-2.2-1.6-3.5-1.9
		c-0.5-0.2-0.9-0.2-1.4-0.3c-0.7-0.1-1.4-0.2-2-0.6c-0.3-0.2-0.6-0.4-0.8-0.6c-1-0.7-2.1-1.5-3.1-2c-1.8-0.9-3.7-1.4-5.9-1.8
		c-0.7-0.2-1.1-0.7-1.6-1.2c-0.3-0.4-0.6-0.8-1-1c-1.7-1.3-3.2-2.2-5.1-2.2c-0.2,0-0.4,0-0.5,0c-1,0.1-2,0.8-2.7,1.4
		c-0.1,0.1-0.2,0.1-0.2,0.2c-1.2-1.7-2.9-3.8-5.1-5.9C137.1,5.3,128.9,0,117,0c-11.9,0-20,5.3-24.7,9.7c-2,1.9-3.6,3.8-4.8,5.4
		c-0.1,0-0.3-0.1-0.4-0.1c-0.7-0.2-1.5-0.4-2.4-0.4c-1.1,0-2.1,0.2-3,0.6c-0.6,0.3-1.2,0.7-1.7,1c-1,0.6-1.9,1.2-3,1.6
		c-0.8,0.4-1.7,0.7-2.6,0.9c-1.7,0.5-3.5,1.1-4.9,2.3c-0.4,0.4-0.7,0.7-1,0.9c-1.3,1.2-1.4,1.3-2.5,1.3c-2.4,0-4.2,0.6-6,2.1
		c-1.4,1.3-2.8,2.5-4.5,3.1c-0.7,0.3-1.6,0.3-2.4,0.4C52,29,51.8,29,50.6,29.3c-1.8,0.4-3.7,1.9-5.3,3.1c-0.5,0.4-1.2,0.9-1.6,1.2
		c-0.2,0.1-0.4,0.2-0.5,0.3c-2,1.2-3.9,2.3-6.3,2.3c-0.1,0-0.1,0-0.2,0c-1.8-0.1-3.4-1.4-4-3c-0.5-1.8,0-3.7,1.5-5.2
		c0.7-0.7,1.5-1.4,2.2-2c1.2-1,2.4-2,3.2-3.1c0.9-1.3,0.8-3.4-0.2-4.5c-1-1.1-3.4-1.7-4.3-1.9l-0.2,0c-0.1,0-0.2,0-0.3-0.1
		c-0.6-0.1-1.1-0.2-1.6-0.3c-1.4-0.4-2.5-1.5-3.7-2.1c-0.5,0.7-0.6,1.5-0.6,2.4c0.2,1.9,1.8,3.8,3.5,4.6c0.1,0,0.1,0.1,0.2,0.1
		c0.5,0.2,1.1,0.3,1.7,0.3c0.1,0,0.2,0,0.3,0c0.1,0,0.2,0,0.3,0c0.3,0,0.7,0,1.1,0.1c0.3,0.1,0.7,0.4,0.7,0.8c0,0.2-0.1,0.4-0.4,0.7
		c-0.3,0.2-0.6,0.5-0.9,0.7c-1.5,1.2-3,2.5-4.3,4c-1.7,1.8-1.7,4.9-1,6.9c1,2.7,3.7,4.2,6,4.4c0.4,0.1,0.8,0.1,1.2,0.1
		c1.3,0,2.6-0.3,3.9-0.6c0,0,0.1,0,0.1,0c0.1,0,0.2,0,0.2,0.3c0,0.6,0.1,1.2,0.1,1.8c0,1,0.1,1.9,0.2,2.3c0.2,0.9,0.6,1.9,0.9,2.6
		c0.1,0.3,0.2,0.5,0.3,0.7c0.1,0.4,0,0.8-0.3,1.1c-0.9,0.9-2.8,1.5-3.2,1.6c-0.6,0.1-1.2,0.1-1.6,0.1c-0.2,0-0.4,0-0.5,0
		c-0.2,0-0.4,0.1-0.5,0.2c-0.3,0.3-0.6,1-0.9,1.9c-0.2,0.5-0.4,1.1-0.6,1.5c-0.6,1-1.6,1.6-2.6,2.1c-0.2,0.1-0.5,0.3-0.7,0.4l0,0
		c-0.4,0.6-0.8,1.2-1.3,1.7c-0.4,0.4-0.9,0.5-1.4,0.5l0,0l0,0c-0.8,0.9-1,2-1.2,3.1c0,0.2-0.1,0.3-0.1,0.5l0,0.2l0.1,0
		c0.4,0,0.8,0.1,1.2,0.2c0.6,0.1,1.1,0.2,1.7,0.2c0.5,0,1-0.1,1.4-0.3c0.7-0.3,1.1-1,1.5-1.6c0.2-0.4,0.5-0.9,0.9-1.2
		c0.2-0.2,0.4-0.3,0.8-0.3c0.3,0,0.6,0.1,0.9,0.2c0.3,0.1,0.6,0.1,0.8,0.2c1.3,0.1,2.6-0.8,3.2-1.3c0.3-0.2,0.5-0.5,0.8-0.7
		c0.4-0.4,0.8-0.8,1.3-1c0.5-0.3,1.2-0.4,2-0.4c1,0,2.1,0.2,2.9,0.4c0.5,0.1,0.9,0.2,1.4,0.2c0.8,0,1.6-0.2,2.2-0.5
		c0.7-0.4,1.5-0.8,2.1-1.1c0.4-0.2,0.7-0.3,0.9-0.5c1.1-0.6,2-2.2,2.3-2.9c0.3-0.6,0.9-2,0.9-2l0-0.1l-1.2-1l-0.1,0.1
		c0,0-0.8,1.4-1.4,2c-2.2,3-5.8,3.4-8.6,3.4c-0.2,0-0.4,0-0.6,0c-3.6,0-6.4,1.2-8.5,3.5c-0.1,0.1-0.3,0.1-0.3,0c0-0.1-0.1-0.1,0-0.3
		c0.1-0.2,0.1-0.3,0.2-0.6c2.2-3.2,6-3.6,9.1-3.7c2.3-0.2,3.9-0.5,5.3-1.3c1.8-0.9,3.2-3,3.7-4.6c0.4-1.1,0.5-2.2,0.7-3.3
		c0.1-0.9,0.3-1.8,0.5-2.6c0-0.1,0.2-0.2,0.3-0.2c0,0,0,0,0.1,0c0.1,0,0.3,0.1,0.3,0.3c-0.3,1.7-0.7,4.1,0.1,6.1
		c0.4,0.8,1.2,1.2,2.4,1.2c0.8,0,1.6-0.1,2.4-0.3c0.6-0.1,1.2-0.2,1.7-0.2c0.2,0,0.4,0,0.6,0c1,0,2,0.2,2.9,0.4
		c0.8,0.2,1.7,0.3,2.5,0.4c0.2,0,0.3,0,0.5,0c0.3,0,0.6,0,0.9,0c0.7,0,1.2-0.1,1.6-0.5c0.3-0.2,0.2-0.5,0.1-0.9l0-0.1
		c0-0.1,0-0.1-0.1-0.2c-0.2-0.5-0.4-1.4,0-1.7c0.1,0,0.1-0.1,0.2-0.1c0.1,0,0.2,0,0.2,0.1c0,0.2,0.1,0.3,0.1,0.5
		c0.2,0.7,0.4,1.3,0.8,1.9c0.9,1.1,2.2,2.2,3.9,3.1c1.1,0.7,2.4,2,2.5,3.7c0,0.8-0.8,1.3-1.3,1.7c-0.9,0.4-2.4,1-3.2,1
		c-0.2,0-0.2,0-0.3,0c-1-0.6-1.6-1.5-2.2-2.4c-0.3-0.5-0.6-1-1-1.5c-0.5-0.6-1.2-0.8-2.2-0.8c-0.9,0.1-1.7,0.2-2.7,0.4
		c-0.2,0-0.4,0.2-0.4,0.3c-0.1,0.2-0.1,0.4,0.1,0.6c0.5,0.9,1,1.7,1.5,2.6l0.2,0.4c0.1,0.2,0.4,0.2,0.6,0.2c0.1,0,0.3,0,0.4,0
		c0.1,0,0.3,0,0.4,0c0.5,0,0.7,0.1,0.9,0.3c0.2,0.2,0.3,0.5,0.4,0.7c0.3,0.6,0.7,1.3,1.3,1.7c0.5,0.5,1.3,0.7,2.1,0.7
		c0.4,0,0.7-0.1,1-0.2c2.3-0.7,4.6-1.5,6.8-2.7l0.7,0c0.2,0,0.3,0,0.5,0c0.8-0.1,1.5-0.1,2.1-0.7c0.2-0.3,0.4-0.6,0.6-0.9
		c3.5,5.3,13,16.5,30.4,16.5c17,0,26.5-10.6,30.3-16.1c0.1,0.3,0.2,0.5,0.4,0.7c0.2,0.2,0.5,0.4,0.8,0.4c0.2,0,0.4,0,0.5-0.1
		c0.3,0,0.6-0.1,0.9,0c0.4,0.1,0.6,0.4,0.9,0.6c0.3,0.3,0.5,0.6,0.9,0.7c0.7,0.2,1.5,0.4,2.3,0.6c1,0.3,2,0.5,3,0.9
		c0.6,0.2,1.1,0.3,1.7,0.3c0.6,0,1-0.2,1.6-0.6c0.8-0.6,1-1.2,1.2-2.1c0.2-0.8,0.4-0.9,1-0.9c0.3,0,0.3,0,0.6-0.1
		c0.3-0.1,1.2-1.2,1.6-2c0.1-0.2,0.3-0.4,0.4-0.6c0.1-0.2,0.2-0.4,0.2-0.5c0-0.4-0.4-0.6-0.6-0.6l-0.1,0c0,0-2.5,0-3.2,0
		c-1,0.1-1.5,1.1-1.9,1.9c-0.1,0.3-0.3,0.7-0.5,0.9c-0.3,0.5-0.8,0.8-1.5,0.8c-0.2,0-0.6-0.1-0.8-0.2c-1.4-0.3-2.8-0.7-3.4-2
		c-0.1-0.2-0.1-0.7,0.2-1.1c0.7-0.8,1.7-1.9,2.7-2.7c1.4-0.3,2.8-1.3,3.5-2.6c0.2-0.2,0.2-0.5,0.3-0.7c0.1-0.4,0.2-0.8,0.6-1
		c0.2-0.1,0.4-0.1,0.5,0.1c0.1,0.7-0.1,1.4-0.4,2.1c-0.1,0.2-0.1,0.3-0.2,0.4l0,0.1l0.1,0c0.4,0,0.8,0.1,1.2,0.1
		c1.4,0,2.8-0.2,4.1-0.5c1.3-0.2,2.6-0.5,4-0.5c0.1,0,0.3,0,0.4,0c0.6,0,1.2,0.1,1.8,0.1c0.6,0.1,1.1,0.1,1.7,0.1c0.2,0,0.4,0,0.6,0
		c1.8-0.1,3-0.9,3.4-2.1c0.4-1.1,0.3-2.9-0.1-5.6c0-0.1,0-0.2,0-0.2c0,0,0,0,0-0.1c0-0.1,0-0.2,0.1-0.3c0.2-0.1,0.3,0,0.4,0.2
		c0.7,1.9,1.1,4,1.3,5.5c0.2,1.4,0.8,2.9,1.8,4.5c1.3,1.9,3.3,3,5.7,3c0.5,0,1.1-0.1,1.6-0.2c0.4-0.1,0.5,0,0.8,0
		c3,0,5.6,1.3,7.6,3.8c0,0,0,0,0,0.1c0,0.1-0.2,0.2-0.3,0.2l-0.3-0.2c-1.7-1.3-3.4-2.7-5.6-2.9c-0.4-0.1-0.8-0.1-1.2-0.1
		c-0.6,0-1.3,0.1-1.9,0.1c-0.6,0.1-1.2,0.1-1.8,0.1c-0.8,0-1.4-0.1-2-0.4c-2.5-0.8-4.6-3.7-5.3-5.5c0-0.1-0.1-0.2-0.3-0.2
		c-0.1,0-0.1,0-0.2,0.1c-0.3,0.2-0.3,0.3-0.4,0.5c0,0.2,0.2,1.4,0.3,2c0.3,1.4,0.8,3.5,2.6,4.2c0.2,0.1,0.4,0.3,0.7,0.4
		c0.9,0.6,1.8,1.2,2.9,1.2c0.3,0,0.5,0,0.8-0.1c0.6-0.1,1.3-0.2,2-0.2c2.1,0,4.2,0.7,6,2c0.3,0.2,0.6,0.4,0.8,0.6
		c0.4,0.3,0.8,0.7,1.2,0.8c0.3,0.1,0.6,0.2,0.9,0.2c0.8,0,1-0.2,1.6-0.5c0.3-0.1,0.5-0.2,0.7-0.2c0.6,0,1,0.5,1.5,1.1
		c0.3,0.4,0.6,0.8,1,1.2c0.6,0.6,1.4,0.6,2,0.6c0.3,0,0.7,0,1,0c0.3,0,0.7,0,0.9-0.1c0.2,0,0.3-0.1,0.3-0.1l0-0.1
		C205,60,204.7,58.8,204.2,57.6z M150.3,22c0.2,0.4,0.1,0.8-0.2,1.1c-0.3,0.3-0.6,0.6-0.9,0.8c-1.1,1-2.2,2-2.9,3.1
		c-0.3,0.5-0.6,1-0.8,1.5c0,0.1-0.1,0.2-0.2,0.2c-0.1,0-0.1,0-0.2-0.1c-0.2-0.2,0-1.6,0.2-2.4c0.6-1.6,1.9-3.3,3.7-4.6
		c0.2-0.1,0.4-0.2,0.6-0.2C149.9,21.6,150.2,21.8,150.3,22z M85.5,24.6c0.1-0.2,0.3-0.3,0.6-0.3c0.1,0,0.2,0,0.4,0.1
		c0.4,0.2,0.8,0.7,1.1,1.4c1,2,0.2,4.8,0.2,4.8c0,0.1-0.1,0.2-0.2,0.2c0,0-0.2,0-0.2-0.2c-0.4-2-0.6-3-1.1-3.9
		c-0.1-0.3-0.3-0.5-0.5-0.8C85.5,25.5,85.2,25.1,85.5,24.6z M152.6,47.1l-1.9,2.8c-0.5,0.6-0.9,1.3-1.1,2.1c-0.1,0.7-0.1,1.4,0,2.1
		l0,0.2c0,0-0.1-0.1-0.1-0.2c-0.8-1.4-0.9-2.6-0.5-3.5c0.3-0.6,1.8-2.8,2.3-3.5c0.1-0.2,0.3-0.5,0.1-0.6c-0.2-0.2-1.3-0.7-1.6-0.7
		c0,0,0,0-0.1,0c-0.3,0.1-0.5,0.3-0.6,0.6c0,0-0.1,0.1-0.1,0.2l-2.4,4.3l-0.1,0.2c-0.1,0.4-0.3,0.8-0.1,1.3c0.1,0.3,0.2,0.7,0.2,1
		c-2.7,4.4-11.9,16.6-29.5,16.6c-17.5,0-26.6-11.9-29.3-16.4c0-0.1,0.1-0.1,0.1-0.2c0.5-1,0.5-1.9,0-2.6c-1.4-2.2-1.6-2.8-2.2-4.3
		l0,0l0,0c-0.2,0-0.3-0.1-0.5-0.2c-0.3-0.1-0.7-0.3-1.1-0.3l-0.1,0c-0.5,0-0.8,0.2-0.9,0.4l0,0l2.5,5c0.2,0.4,0.3,0.8,0.2,1.4
		C85.6,53,84.4,55,84,55.2c-0.1,0.1-0.2,0.1-0.2,0.1c0,0-0.2,0-0.1-0.3c0.2-0.8,0.5-2.7,0.4-3.3c-0.1-0.7-2.2-4.2-2.3-4.3l0-0.1
		c-0.3-0.5-0.7-1.1-0.6-1.7c0-0.3,0.3-0.5,0.5-0.6c0.4-0.1,0.7-0.2,1.1-0.3c0.9-0.2,1.8-0.4,2.1-0.9c1-1.5,1.6-3.1,2-5.3
		c0-0.1,0.1-0.3,0.2-0.3c0.1,0,0.2,0,0.2,0.2c0.4,2.1-0.1,4.3-1.4,6c-0.1,0.1-0.1,0.3-0.1,0.5c0,0.2,0.2,0.3,0.2,0.3
		c0.5,0.3,2.2,0.1,3.5-0.5c1,0,1.9-0.2,2.8-0.3c0.3-0.1,0.6-0.1,0.8-0.2c0.1,0.1,0.2,0.1,0.2,0.2c-0.7,0.8-1.2,1.8-1.4,3
		c-0.2,0.2-0.4,0.4-0.7,0.6c-0.8,0.8-1.7,1.6-1.7,2.7c0,0,0,0.4,0.4,0.4c0.1,0,0.3-0.1,0.4-0.1c0.2-0.1,0.3-0.1,0.4-0.1
		c0.1,0,0.2,0.1,0.2,0.3l-0.9,1.4c-0.4,0.6-0.2,1.2-0.1,1.8c0.1,0.3,0.1,0.6,0.1,0.9c0.2,0.7,1.1,1,1.7,1c1.2-0.1,2.3-0.5,3.4-0.8
		c0.2-0.1,0.4-0.1,0.6-0.2c1.2-0.5,2.7-0.6,4.6-0.3c1.5-0.1,2.6-1.1,3.7-2.1c0.5,0,1,0.3,1.4,0.8c1.6,1.7,3.6,2.6,6.1,2.6
		c0.1,0,0.2,0,0.3,0l0.3,0c0.3-0.1,0.3-0.2,0.3-0.3c0-0.2-0.1-0.4-0.4-0.5l-1.4-0.7c-1.1-0.7-2.3-1.6-2.6-2.7
		c-0.4-1.2-1-2.4-1.5-3.2c-0.1-0.2-0.2-0.3-0.3-0.5c-0.2-0.3-0.4-0.6-0.5-0.9l0,0c1.5,0.5,2.4,1.7,3.4,3.5c0.8,1.4,2.7,2.9,4.6,2.9
		c0.2,0,0.5,0,0.7-0.1c0.2,0,0.3-0.2,0.4-0.3c0-0.2,0-0.3-0.2-0.4c-0.5-0.3-1.1-0.6-1.1-0.6c-1.3-0.8-2.1-2.1-2.9-3.3
		c-0.3-0.5-0.6-1-0.9-1.5c-0.2-0.3-0.6-0.6-0.9-0.9c-0.3-0.3-0.6-0.5-0.6-0.6c-1.2-3.3-2.6-7.3-2.9-11.7c-0.1-0.7-0.5-2.1-1.1-3.1
		c-1.7-2.8-5.9-7.7-6.1-7.9c-0.1-0.2-0.3-0.3-0.4-0.4l-0.1-0.1l-7.5-6.2c-0.3-0.2-0.6-0.4-0.8-0.6c1.1-1.5,2.6-3.2,4.4-4.9
		C100.2,5,108,2,117,2c9,0,16.9,3.1,23.4,9.1c2.2,2,3.8,4.1,5,5.7c-1.4,1.1-2.9,2.2-4.3,3.2c-3,2.2-6.1,4.4-8.8,7.3
		c-2.6,2.7-3.6,6.1-4.5,9.3c-0.1,0.5-0.3,1-0.4,1.4c-0.2,0.9-0.5,1.8-0.7,2.7c-1.2,4.8-2.4,9.6-7.2,12.7c-0.3,0.2-0.2,0.6,0.1,0.7
		c0.1,0,2.1,0.7,4.1-1.3c1.2-1.5,1.9-2.9,3.3-4.4c0,0,0.2-0.2,0.4-0.2c0.1,0.1,0.1,0.1,0.1,0.3c-0.2,0.6-0.6,1.2-0.9,1.7
		c-0.4,0.5-0.8,1.1-1,1.7c-0.5,1.4-1.7,2.5-2.9,3.5c0,0-0.2,0.1-0.3,0.2c-0.1,0.1-0.1,0.2-0.1,0.2c0,0.3,0.2,0.5,0.7,0.5
		c0,0,0,0,0,0c2.7,0,4.6-1.9,6.4-3.8c0.1-0.1,0.2-0.1,0.3-0.1c0.1,0,0.2,0,0.3,0c0.1,0.1,0.4,0.3,0.6,0.5c0.6,0.5,1.2,1.1,2,1.3l0,0
		l0,0c1-0.1,1.9-0.2,2.8-0.2c0.3,0,0.5,0,0.7,0c1,0.3,2,0.7,2.9,1c0.7,0.3,1.4,0.5,2.1,0.7l0,0l0,0c0.9,0,1.5-0.9,2-1.6
		c0.2-0.5,0.1-1,0-1.5c-0.1-0.3-0.1-0.6-0.1-0.9c0.2-0.1,0.4-0.1,0.6,0c0.2,0,0.5,0,0.6,0c0.2,0,0.5-0.3,0.4-0.7
		c-0.2-0.9-0.6-1.4-1.1-2.1c-0.4-0.6-0.8-1.1-1-1.8c-0.3-0.8-0.9-1.5-1.5-2.2c-0.7-0.8-1.4-1.5-1.6-2.4c0,0-0.1-0.2,0-0.3
		s0.3,0,0.3,0c0.3,0.2,0.6,0.5,1,0.8c1,0.8,2.1,1.7,3.4,1.9c1.2,0.1,2.5,0.3,3.8,0.2c0.3-0.1,0.5-0.3,0.4-0.6
		c-0.5-1.1-1-2.2-1.4-3.5c-0.3-0.9-0.9-3.5-0.3-5.3c0.1-0.2,0.2-0.2,0.3-0.2c0,0,0,0,0,0c0.2,0.1,0.3,0.3,0.4,0.5l0,0.2
		c0.2,2.6,0.3,5,1.9,7.1c0.4,0.7,1,1,1.6,1.4c0.4,0.2,0.9,0.4,1.2,0.8C152.7,46,152.8,46.7,152.6,47.1z M99.5,49.3
		c0,0,0.4-0.1,0.7,0c0.4,0.2,0.2,1.1,0.2,1.2c0,0-0.1,0.6-0.3,0.8c-0.3,0.2-1.2,0.4-1.7,0.4c-0.5,0-0.7-0.1-0.8-0.2
		c-0.1-0.2,0.1-0.5,0.1-0.5C97.7,50.8,98.3,49.6,99.5,49.3z M98.4,39.4c0.2-0.6,0.3-0.7,0.5-1.2c0,0,0.4-0.9,0.5-1.1
		c0.4-0.6,0.9-0.5,0.9-0.5c0.1,0,0.6,0,1.1,0.5c0.5,0.7,0.4,0.6,0.6,0.9c0.2,0.2,0.3,0.5,0.8,1c0.5,0.5,1,1.5,1.1,2.1
		c0.1,0.6,0.1,1.1,0.1,1.6c-0.1,0.5-0.2,0.7-0.2,0.8c-0.1,0.1-0.2,0.4-0.5,0.4c-0.4,0-0.3-0.4-0.4-0.5c0,0,0-1.2-0.3-1.7
		c-0.3-0.6-1.5-2.2-2.2-2.1c-0.2,0-0.6,0.3-1,0.7c-0.4,0.5-0.4,0.6-0.5,0.7c-0.1,0.1-0.3,0-0.4-0.3C98.3,40.3,98.2,40.1,98.4,39.4z
		 M136.7,41.2c-0.2-0.1-0.5-0.4-0.6-0.6c-0.2-0.3-0.3-0.6-0.7-0.5c0,0,0,0-0.1,0c-0.3,0-0.6,0.2-0.9,0.4c-0.1,0.1-0.7,0.5-0.8,0.6
		c-0.8,0.6-1.5,1.3-1.7,2.2c-0.1,0.3-0.1,0.3-0.1,0.5c-0.1,0.3-0.1,0.6-0.4,0.8l0,0c0,0-0.1,0-0.1,0c-0.1,0-0.2,0-0.3-0.1
		c-0.1-0.1-0.2-0.2-0.2-0.3c-0.1-1.5,0.4-2.9,1.5-3.9c0.7-0.6,1.3-1.3,1.8-2c0.3-0.3,0.5-0.7,0.8-1c0.2-0.2,0.6,0,1.1,0.6
		c0.2,0.3,1,1.5,1.3,2.4c0.1,0.4,0,0.7,0,0.7C137.2,41.2,136.9,41.3,136.7,41.2z M136.7,51.6c-0.1,0.2-0.4,0.3-0.8,0.3
		c-0.3,0-0.7-0.1-0.9-0.2c-0.5-0.3-0.8-0.9-0.8-1.7c0-0.2,0-0.3,0.2-0.5c0.1-0.1,0.2-0.1,0.3-0.1c0.5,0,1.2,0.3,1.6,0.8
		C136.4,50.2,137,51,136.7,51.6z"/>
	<path class="st1" d="M74.2,52.7c0.2,0.3,0.4,0.7,0.6,1.1c0.3,0.6,0.5,1.2,0.8,1.3c0.1,0,0.3,0.1,0.4,0.1c0.7,0,1.6-0.4,2.2-0.9
		c0.4-0.3,0.2-0.5,0.1-0.8c-0.1-0.1-0.1-0.2-0.2-0.3c-0.2-0.3-0.3-0.7-0.4-1c-0.2-0.6-0.3-1.2-1-1.1c-1,0.1-1.9,0.2-2.9,0.2
		c0,0-0.3,0-0.4,0.2c-0.1,0.3,0.1,0.5,0.4,0.8C73.9,52.4,74.1,52.6,74.2,52.7z"/>
	<path class="st1" d="M28.4,55.9c0.1,0.1,0.4,0.3,0.7,0.3c0.2,0,0.4-0.1,0.6-0.2c1-0.5,2.1-2.5,2.2-2.6c0.1-0.3-0.2-0.6-0.7-1
		l-0.1,0c-0.2-0.2-0.6-0.1-0.8,0c-0.2,0.1-0.3,0.2-0.5,0.3c-0.5,0.4-1.1,0.7-1.7,1.2c-0.2,0.2-0.3,0.5-0.4,0.8c0,0.2,0,0.4,0.1,0.5
		C27.9,55.3,28.3,55.8,28.4,55.9z"/>
	<path class="st1" d="M26.4,55.9C26.3,55.9,26.3,55.9,26.4,55.9c-0.6,0.2-1.3,1-1.3,1.4c-0.1,1.9-0.2,2.1-0.7,2.6
		c-0.1,0.2-0.2,0.5-0.1,0.7c0.1,0.1,2,0.7,2.2,0.7l0,0c0.2,0,0.3-0.5,0.7-1.8c0.2-0.7,0.4-1.5,0.7-2.2c0,0,0-0.1-0.1-0.4
		C27.5,56.8,26.8,55.9,26.4,55.9z"/>
</g>
</svg>
