<svg id="Layer_1" data-name="Layer 1" xmlns="http://www.w3.org/2000/svg" viewBox="0 0 396.93 109.09"><defs><style>.cls-1{fill:#ccc;}</style></defs><path class="cls-1" d="M1.53,227H39l22,36.79L83,227h37.22L77.84,290.34V336H44v-45.7Z" transform="translate(-1.53 -226.95)"/><path class="cls-1" d="M127.83,227h90.31v26.88H161.61v15.55h49.33V294H161.62v15.55h58.15v26.53H127.84Z" transform="translate(-1.53 -226.95)"/><path class="cls-1" d="M231,227h102.4v26.87H299.07V336h-33.7V253.9H231Z" transform="translate(-1.53 -226.95)"/><path class="cls-1" d="M345.6,227h33.78V336H345.66Z" transform="translate(-1.53 -226.95)"/><path class="cls-1" d="M384.08,232.19a7.61,7.61,0,0,1,4.06-3.95,7.44,7.44,0,0,1,2.9-.62,7.17,7.17,0,0,1,6.85,4.3,7,7,0,0,1,.58,2.88,7.77,7.77,0,0,1-.61,3,8.25,8.25,0,0,1-1.64,2.37,7.45,7.45,0,0,1-2.4,1.59,7.8,7.8,0,0,1-5.78.12,7.09,7.09,0,0,1-2.38-1.51A7,7,0,0,1,384,238a7.54,7.54,0,0,1,0-5.85Zm1.19,5.38a6.11,6.11,0,0,0,1.29,2,5.81,5.81,0,0,0,1.94,1.3,6.41,6.41,0,0,0,4.85-.05,6.14,6.14,0,0,0,3.26-3.4,6.59,6.59,0,0,0,.5-2.52,6.66,6.66,0,0,0-.46-2.45,5.73,5.73,0,0,0-3.22-3.24,5.82,5.82,0,0,0-2.41-.43,6.19,6.19,0,0,0-5.72,3.88,6.87,6.87,0,0,0,0,5Zm6.21-6.91a3.49,3.49,0,0,1,2.29.57,2.6,2.6,0,0,1,.07,3.56,3.09,3.09,0,0,1-1.64.67l2.47,3.74h-1.46l-2.35-3.66h-1.44v3.74h-1.35l.06-8.6Zm-.63,3.83h.87a2.17,2.17,0,0,0,.7-.25,1.13,1.13,0,0,0,.51-.43,1.49,1.49,0,0,0,.2-.8,1.29,1.29,0,0,0-.17-.69.93.93,0,0,0-.43-.38,1.65,1.65,0,0,0-.62-.18,4,4,0,0,0-.69,0h-1.79v2.73Z" transform="translate(-1.53 -226.95)"/></svg>